<?xml version="1.0" encoding="UTF-8" ?>
<svg width="512pt" height="512pt" viewBox="0 0 512 512" version="1.1" xmlns="http://www.w3.org/2000/svg">
    <g id="#c52828ff">
        <path fill="#c52828" opacity="1.00" d=" M 133.83 41.61 C 138.51 40.48 143.36 41.32 148.10 40.61 C 154.05 39.81 159.97 41.21 165.93 40.98 C 196.66 43.60 226.59 55.69 250.39 75.37 C 250.45 75.43 250.58 75.53 250.65 75.59 C 252.51 77.07 254.28 78.66 256.01 80.30 C 257.71 78.68 259.45 77.11 261.28 75.64 C 261.37 75.56 261.56 75.41 261.66 75.33 C 285.47 55.72 315.33 43.60 346.05 40.98 C 352.37 41.19 358.66 39.73 364.97 40.71 C 401.31 41.47 436.99 56.58 463.52 81.36 C 480.97 97.63 494.53 118.08 502.69 140.52 C 506.25 150.73 508.99 161.26 510.25 172.01 C 511.57 178.37 510.64 184.95 512.00 191.33 L 512.00 192.27 C 510.56 198.42 511.61 204.81 510.25 210.96 C 509.02 221.72 506.28 232.27 502.72 242.48 C 496.72 258.88 487.98 274.30 476.75 287.69 C 467.74 298.62 457.13 308.06 447.21 318.13 C 438.34 326.63 429.41 335.09 420.88 343.93 C 396.81 367.48 373.21 391.50 349.21 415.12 C 339.68 424.25 330.11 433.37 320.94 442.86 C 310.16 453.43 299.45 464.06 288.79 474.74 C 275.90 487.00 256.15 490.78 239.51 484.77 C 233.38 482.26 227.47 478.95 222.72 474.26 C 210.92 462.41 199.04 450.63 187.10 438.92 C 178.57 430.09 169.68 421.60 160.80 413.14 C 137.12 389.82 113.83 366.12 90.09 342.88 C 81.23 333.73 72.01 324.91 62.79 316.12 C 57.10 310.52 51.43 304.90 45.78 299.27 C 29.75 283.24 17.00 263.85 9.32 242.48 C -4.63 203.62 -1.89 159.06 17.29 122.41 C 26.89 104.06 40.19 87.65 56.27 74.61 C 56.36 74.53 56.55 74.38 56.65 74.30 C 78.64 56.46 105.71 44.96 133.83 41.61 M 66.29 108.36 C 45.54 129.41 33.19 158.44 32.45 188.00 C 31.53 215.64 40.68 243.49 57.88 265.16 C 63.53 272.46 70.32 278.73 76.83 285.24 C 132.77 340.61 188.70 396.00 244.65 451.36 C 248.84 455.62 255.49 457.14 261.14 455.20 C 265.16 454.01 268.02 450.80 270.88 447.93 C 328.50 390.88 386.14 333.84 443.76 276.78 C 453.51 267.17 461.70 255.95 467.67 243.62 C 478.77 220.93 482.29 194.65 477.65 169.83 C 472.63 142.07 457.21 116.44 435.25 98.78 C 412.63 80.32 383.09 70.73 353.95 72.10 C 326.78 73.21 300.12 83.78 279.60 101.63 C 271.67 108.60 263.90 115.75 256.03 122.79 C 246.50 114.43 237.40 105.57 227.52 97.61 C 203.54 78.80 172.29 69.66 141.95 72.47 C 113.51 74.88 86.12 87.84 66.29 108.36 Z" />
    </g>
    <g id="#ffffffff">
        <path fill="#ffffff" opacity="1.00" d=" M 66.29 108.36 C 86.12 87.84 113.51 74.88 141.95 72.47 C 172.29 69.66 203.54 78.80 227.52 97.61 C 237.40 105.57 246.50 114.43 256.03 122.79 C 263.90 115.75 271.67 108.60 279.60 101.63 C 300.12 83.78 326.78 73.21 353.95 72.10 C 383.09 70.73 412.63 80.32 435.25 98.78 C 457.21 116.44 472.63 142.07 477.65 169.83 C 482.29 194.65 478.77 220.93 467.67 243.62 C 461.70 255.95 453.51 267.17 443.76 276.78 C 386.14 333.84 328.50 390.88 270.88 447.93 C 268.02 450.80 265.16 454.01 261.14 455.20 C 255.49 457.14 248.84 455.62 244.65 451.36 C 188.70 396.00 132.77 340.61 76.83 285.24 C 70.32 278.73 63.53 272.46 57.88 265.16 C 40.68 243.49 31.53 215.64 32.45 188.00 C 33.19 158.44 45.54 129.41 66.29 108.36 Z" />
    </g>
</svg>
